<svg width="170" height="53" viewBox="0 0 170 53" fill="none" xmlns="http://www.w3.org/2000/svg">
<path d="M25.3976 0.0617175C28.139 0.0627486 33.5662 -0.198995 36.09 0.34785C37.7379 0.705005 39.3847 1.60083 40.6164 2.75898C42.8939 4.90013 43.8665 7.71343 43.9679 10.802C44.0321 12.7462 43.9776 14.7088 43.9728 16.6545L43.9592 26.7883L43.9582 33.0842C43.9585 34.849 44.0593 36.7088 43.7092 38.4445C43.3257 40.3543 42.4276 42.1198 41.1144 43.5441C39.1054 45.7127 36.642 46.6543 33.7472 46.7395C28.5629 46.875 23.3464 46.7397 18.1584 46.7404L12.676 46.7414C11.1563 46.741 9.52271 46.8229 8.02654 46.5197C6.439 46.1979 4.87683 45.3991 3.6613 44.3205C1.42167 42.3327 0.24029 39.5326 0.0587637 36.5559C-0.0489495 34.7896 0.0238396 32.9815 0.0265371 31.2111L0.0343496 21.8654L0.0314199 14.5832C0.0305351 12.5457 -0.0882639 10.437 0.303881 8.4289C0.659915 6.57967 1.49949 4.86131 2.73454 3.45234C4.78496 1.121 7.29427 0.257742 10.2892 0.0822253C15.3088 -0.0873021 20.374 0.0598134 25.3976 0.0617175ZM9.3322 22.9797C7.21502 25.1036 4.9116 27.0445 2.82146 29.1916L2.81072 33.5754C2.80828 36.5808 2.80672 39.3718 5.04021 41.6574C6.87668 43.5365 9.01107 43.7855 11.4953 43.7893L16.0275 43.7863C17.64 43.7964 20.4217 44.1672 21.6486 42.9729C22.1503 42.4793 22.4336 41.8012 22.4347 41.093C22.4314 40.5696 22.289 40.1256 22.0207 39.6848C21.119 38.2029 19.9583 36.8274 18.9084 35.4494L13.5226 28.385L10.6252 24.5891C10.2592 24.1102 9.86774 23.4541 9.42888 23.0529C9.40378 23.03 9.3572 22.9977 9.3322 22.9797ZM34.4543 3.19941C33.85 3.11739 33.2382 3.10302 32.631 3.15742C31.5309 3.28717 30.5192 3.59428 29.5705 4.18476C27.684 5.35913 25.9853 7.15794 24.34 8.66621C20.7339 12.0016 17.1617 15.3739 13.6242 18.7834C15.4081 21.0317 17.0748 23.3938 18.7795 25.7053L27.6652 37.76C29.3164 40.0311 30.8136 42.6664 33.8185 43.132C35.4413 43.3784 37.0935 42.9623 38.4133 41.9748C39.8068 40.957 40.737 39.414 40.9943 37.6936C41.2962 35.6588 41.158 33.4912 41.1584 31.4318L41.1652 21.5256L41.175 14.3459C41.1809 12.9974 41.2975 11.5758 41.1203 10.2404C40.9382 8.86896 40.4242 7.46509 39.6047 6.35273C38.3774 4.68728 36.4955 3.48924 34.4543 3.19941ZM20.8088 3.15351C19.5282 2.89065 18.0427 3.02384 16.7375 3.02363C14.7346 3.02333 12.726 2.9957 10.7238 3.03437C10.42 3.04024 10.106 3.03884 9.80388 3.06855C7.76409 3.23559 6.05457 3.92833 4.69939 5.53437C3.89519 6.49114 3.33563 7.63388 3.07146 8.86152C2.62014 10.9402 2.81997 13.359 2.82048 15.4826L2.81658 25.4572C4.9874 23.2213 7.29083 21.1043 9.51872 18.926L18.4875 10.173C19.6148 9.06371 21.0125 7.97003 21.964 6.71211C22.2729 6.30391 22.4518 5.87381 22.4582 5.35469C22.4656 4.74032 22.2291 4.10587 21.7961 3.67109C21.5151 3.38932 21.1936 3.23255 20.8088 3.15351Z" fill="#FEFEFE"/>
<path d="M25.3986 0.0617047C28.1399 0.0627438 33.5671 -0.198981 36.091 0.347838C37.7389 0.704985 39.3857 1.60085 40.6174 2.75897C42.8949 4.90011 43.8675 7.71342 43.9689 10.8019C44.0331 12.7462 43.9786 14.7087 43.9738 16.6545L43.9601 26.7883L43.9592 33.0842C43.9595 34.8489 44.0613 36.7089 43.7111 38.4445C43.3277 40.3543 42.4286 42.1198 41.1154 43.5441C39.1063 45.7127 36.6431 46.6543 33.7482 46.7394C28.5638 46.875 23.3474 46.7397 18.1593 46.7404L12.6769 46.7414C11.1573 46.741 9.52369 46.8229 8.02751 46.5197C6.44002 46.1978 4.87777 45.3991 3.66228 44.3205C1.4227 42.3327 0.241263 39.5326 0.0597391 36.5558C-0.0479718 34.7896 0.0248156 32.9815 0.0275125 31.2111L0.035325 21.8654L0.0323953 14.5832C0.0315106 12.5457 -0.0872885 10.437 0.304856 8.42889C0.660885 6.57968 1.50049 4.86129 2.73552 3.45233C4.78594 1.12099 7.29524 0.25773 10.2902 0.0822125C15.3098 -0.0873217 20.3749 0.0598006 25.3986 0.0617047ZM9.33318 22.9797C7.21597 25.1037 4.91262 27.0444 2.82243 29.1916L2.81169 33.5754C2.80926 36.5808 2.80764 39.3718 5.04118 41.6574C6.8777 43.5364 9.01197 43.7855 11.4963 43.7892L16.0285 43.7863C17.641 43.7964 20.4227 44.1672 21.6496 42.9728C22.1512 42.4793 22.4346 41.8012 22.4357 41.093C22.4324 40.5696 22.2899 40.1256 22.0217 39.6848C21.12 38.203 19.9592 36.8274 18.9093 35.4494L13.5236 28.3849L10.6261 24.589C10.2602 24.1102 9.8687 23.4542 9.42986 23.0529C9.40475 23.03 9.35817 22.9977 9.33318 22.9797ZM34.4543 3.1994C33.8502 3.11742 33.2391 3.10302 32.632 3.15741C31.5316 3.28715 30.5194 3.59405 29.5705 4.18475C27.684 5.35912 25.9853 7.15793 24.34 8.6662C20.7339 12.0015 17.1617 15.3739 13.6242 18.7834C15.4081 21.0317 17.0748 23.3938 18.7795 25.7053L27.6662 37.7599C29.3174 40.031 30.8137 42.6663 33.8185 43.132C35.4414 43.3784 37.0944 42.9623 38.4142 41.9748C39.8076 40.957 40.738 39.4139 40.9953 37.6935C41.2972 35.6588 41.158 33.4912 41.1584 31.4318L41.1662 21.5256L41.175 14.3459C41.1809 12.9974 41.2985 11.5758 41.1213 10.2404C40.9392 8.86905 40.4251 7.46504 39.6056 6.35272C38.3784 4.68723 36.4955 3.4892 34.4543 3.1994ZM20.8107 3.15253C19.53 2.88953 18.0439 3.02287 16.7385 3.02264C14.7355 3.02234 12.727 2.9947 10.7248 3.03338C10.421 3.03924 10.107 3.03785 9.80486 3.06756C7.76511 3.23464 6.05552 3.92731 4.70036 5.53338C3.8962 6.49011 3.3376 7.63295 3.07341 8.86053C2.62213 10.939 2.82091 13.3572 2.82146 15.4807L2.81755 25.4562C4.98838 23.2203 7.29181 21.1034 9.5197 18.925L18.4885 10.1721C19.6158 9.06273 21.0135 7.96902 21.965 6.71112C22.2739 6.30292 22.4528 5.87281 22.4592 5.3537C22.4665 4.73928 22.2302 4.10488 21.797 3.6701C21.5162 3.3884 21.1955 3.23158 20.8107 3.15253Z" fill="#FEFEFE"/>
<path d="M155.92 51.8624V48.8464C156.232 48.8811 156.527 48.9158 156.804 48.9504C157.081 48.9851 157.359 49.0024 157.636 49.0024C157.948 49.0024 158.251 48.9764 158.546 48.9244C158.858 48.8898 159.153 48.8031 159.43 48.6644C159.707 48.5258 159.959 48.3351 160.184 48.0924C160.409 47.8671 160.6 47.5724 160.756 47.2084L161.276 46.0124L160.86 48.1444L155.582 32.8564H159.404L162.706 43.5944L165.982 32.8564H169.804L164.864 47.2864C164.569 48.1878 164.197 48.9418 163.746 49.5484C163.313 50.1551 162.81 50.6404 162.238 51.0044C161.666 51.3684 161.033 51.6284 160.34 51.7844C159.664 51.9404 158.936 52.0184 158.156 52.0184C157.861 52.0184 157.506 52.0011 157.09 51.9664C156.674 51.9491 156.284 51.9144 155.92 51.8624Z" fill="white"/>
<path d="M134.104 46.9996V32.8556H137.458L137.536 35.3776C137.71 34.8922 137.935 34.4676 138.212 34.1036C138.507 33.7396 138.836 33.4449 139.2 33.2196C139.564 32.9942 139.963 32.8209 140.396 32.6996C140.847 32.5782 141.324 32.5176 141.826 32.5176C142.364 32.5176 142.866 32.5869 143.334 32.7256C143.802 32.8642 144.218 33.0636 144.582 33.3236C144.964 33.5662 145.293 33.8782 145.57 34.2596C145.848 34.6409 146.073 35.0742 146.246 35.5596C146.42 35.0396 146.645 34.5889 146.922 34.2076C147.2 33.8262 147.52 33.5142 147.884 33.2716C148.266 33.0116 148.69 32.8209 149.158 32.6996C149.626 32.5782 150.12 32.5176 150.64 32.5176C151.368 32.5176 152.027 32.6389 152.616 32.8816C153.223 33.1242 153.734 33.4796 154.15 33.9476C154.584 34.3982 154.913 34.9616 155.138 35.6376C155.364 36.2962 155.476 37.0416 155.476 37.8736V46.9996H151.836V39.0696C151.836 38.4802 151.784 37.9689 151.68 37.5356C151.594 37.1022 151.455 36.7469 151.264 36.4696C151.074 36.1749 150.822 35.9582 150.51 35.8196C150.216 35.6809 149.86 35.6116 149.444 35.6116C149.011 35.6116 148.621 35.6896 148.274 35.8456C147.928 36.0016 147.624 36.2269 147.364 36.5216C147.122 36.7989 146.931 37.1542 146.792 37.5876C146.671 38.0209 146.61 38.5149 146.61 39.0696V46.9996H142.97V39.0696C142.97 38.4802 142.918 37.9689 142.814 37.5356C142.728 37.1022 142.589 36.7469 142.398 36.4696C142.208 36.1749 141.956 35.9582 141.644 35.8196C141.35 35.6809 140.994 35.6116 140.578 35.6116C140.145 35.6116 139.755 35.6896 139.408 35.8456C139.062 36.0016 138.758 36.2269 138.498 36.5216C138.256 36.7989 138.065 37.1542 137.926 37.5876C137.805 38.0209 137.744 38.5149 137.744 39.0696V46.9996H134.104Z" fill="white"/>
<path d="M118.075 39.9276C118.075 38.8182 118.249 37.8129 118.595 36.9116C118.942 35.9929 119.427 35.2129 120.051 34.5716C120.693 33.9129 121.464 33.4102 122.365 33.0636C123.267 32.6996 124.272 32.5176 125.381 32.5176C126.473 32.5176 127.453 32.6909 128.319 33.0376C129.203 33.3842 129.949 33.8782 130.555 34.5196C131.179 35.1436 131.656 35.9062 131.985 36.8076C132.315 37.6916 132.479 38.6796 132.479 39.7716V40.8636H121.819C121.889 41.4009 122.019 41.8949 122.209 42.3456C122.4 42.7962 122.643 43.1776 122.937 43.4896C123.249 43.8016 123.613 44.0442 124.029 44.2176C124.445 44.3736 124.905 44.4516 125.407 44.4516C125.789 44.4516 126.135 44.4082 126.447 44.3216C126.777 44.2349 127.071 44.1049 127.331 43.9316C127.591 43.7409 127.817 43.5156 128.007 43.2556C128.215 42.9956 128.389 42.7009 128.527 42.3716H132.349C131.933 43.8969 131.11 45.1102 129.879 46.0116C128.666 46.8956 127.167 47.3376 125.381 47.3376C124.272 47.3376 123.267 47.1642 122.365 46.8176C121.464 46.4536 120.693 45.9422 120.051 45.2836C119.427 44.6249 118.942 43.8449 118.595 42.9436C118.249 42.0422 118.075 41.0369 118.075 39.9276ZM121.845 38.7836H128.813C128.761 38.2636 128.64 37.7956 128.449 37.3796C128.276 36.9636 128.042 36.6082 127.747 36.3136C127.47 36.0189 127.132 35.7936 126.733 35.6376C126.335 35.4816 125.884 35.4036 125.381 35.4036C124.879 35.4036 124.428 35.4816 124.029 35.6376C123.648 35.7936 123.301 36.0189 122.989 36.3136C122.695 36.6082 122.452 36.9636 122.261 37.3796C122.071 37.7956 121.932 38.2636 121.845 38.7836Z" fill="white"/>
<path d="M116.43 46.9996H113.076L112.998 44.6596C112.582 45.5436 111.949 46.211 111.1 46.6616C110.251 47.1123 109.306 47.3377 108.266 47.3377C107.347 47.3377 106.507 47.1643 105.744 46.8176C104.999 46.471 104.357 45.977 103.82 45.3356C103.283 44.677 102.867 43.8883 102.572 42.9697C102.277 42.051 102.13 41.037 102.13 39.9277C102.13 38.8183 102.277 37.813 102.572 36.9116C102.867 35.993 103.283 35.213 103.82 34.5716C104.357 33.913 104.999 33.4103 105.744 33.0636C106.507 32.6996 107.347 32.5176 108.266 32.5176C109.306 32.5176 110.225 32.743 111.022 33.1936C111.837 33.6443 112.469 34.2856 112.92 35.1176V27.8896H116.43V46.9996ZM112.868 39.9016C112.868 39.2083 112.781 38.593 112.608 38.0556C112.452 37.5183 112.218 37.059 111.906 36.6777C111.611 36.2963 111.239 36.0103 110.788 35.8196C110.355 35.6116 109.852 35.5076 109.28 35.5076C108.725 35.5076 108.231 35.603 107.798 35.7936C107.382 35.9843 107.018 36.2703 106.706 36.6516C106.411 37.033 106.186 37.501 106.03 38.0556C105.891 38.593 105.822 39.2083 105.822 39.9016C105.822 40.6123 105.891 41.245 106.03 41.7996C106.186 42.3543 106.411 42.8223 106.706 43.2036C107.018 43.5676 107.391 43.8536 107.824 44.0616C108.257 44.2523 108.743 44.3476 109.28 44.3476C109.852 44.3476 110.355 44.2523 110.788 44.0616C111.239 43.8536 111.611 43.559 111.906 43.1777C112.218 42.7963 112.452 42.3283 112.608 41.7736C112.781 41.219 112.868 40.595 112.868 39.9016Z" fill="white"/>
<path d="M87.1221 43.3856C87.1221 42.2069 87.5294 41.2796 88.3441 40.6036C89.1587 39.9276 90.3807 39.4422 92.0101 39.1476L97.0021 38.2376V38.1336C97.0021 37.1802 96.7421 36.4696 96.2221 36.0016C95.7021 35.5336 94.9741 35.2996 94.0381 35.2996C93.0847 35.2996 92.3567 35.5336 91.8541 36.0016C91.3687 36.4696 91.0741 37.1282 90.9701 37.9776H87.3041C87.3907 37.0936 87.6074 36.3136 87.9541 35.6376C88.3181 34.9442 88.7861 34.3722 89.3581 33.9216C89.9474 33.4536 90.6407 33.1069 91.4381 32.8816C92.2354 32.6389 93.1107 32.5176 94.0641 32.5176C96.1441 32.5176 97.7474 33.0289 98.8741 34.0516C100.001 35.0569 100.564 36.5129 100.564 38.4196V46.9996H97.2101L97.1321 44.9196C96.9241 45.2662 96.6467 45.5869 96.3001 45.8816C95.9534 46.1762 95.5547 46.4362 95.1041 46.6616C94.6534 46.8696 94.1507 47.0342 93.5961 47.1556C93.0587 47.2769 92.4867 47.3376 91.8801 47.3376C91.2387 47.3376 90.6234 47.2596 90.0341 47.1036C89.4621 46.9476 88.9594 46.7136 88.5261 46.4016C88.0927 46.0722 87.7461 45.6562 87.4861 45.1536C87.2434 44.6509 87.1221 44.0616 87.1221 43.3856ZM90.8401 42.8916C90.8401 43.4636 91.0481 43.8969 91.4641 44.1916C91.8801 44.4689 92.4434 44.6076 93.1541 44.6076C93.7434 44.6076 94.2721 44.5209 94.7401 44.3476C95.2254 44.1742 95.6327 43.9316 95.9621 43.6196C96.2914 43.3076 96.5427 42.9262 96.7161 42.4756C96.9067 42.0249 97.0021 41.5309 97.0021 40.9936V40.3176L93.0241 41.0716C92.2267 41.2276 91.6634 41.4529 91.3341 41.7476C91.0047 42.0249 90.8401 42.4062 90.8401 42.8916Z" fill="white"/>
<path d="M71.6357 39.9276C71.6357 38.8182 71.8091 37.8129 72.1557 36.9116C72.5024 35.9929 72.9964 35.2129 73.6377 34.5716C74.2791 33.9129 75.0504 33.4102 75.9517 33.0636C76.8704 32.6996 77.8757 32.5176 78.9677 32.5176C79.9384 32.5176 80.8224 32.6562 81.6197 32.9336C82.4171 33.1936 83.1191 33.5662 83.7257 34.0516C84.3497 34.5369 84.8611 35.1349 85.2597 35.8456C85.6584 36.5389 85.9357 37.3102 86.0917 38.1596H82.3477C82.2437 37.7436 82.0877 37.3709 81.8797 37.0416C81.6891 36.7122 81.4464 36.4349 81.1517 36.2096C80.8744 35.9842 80.5537 35.8109 80.1897 35.6896C79.8257 35.5682 79.4271 35.5076 78.9937 35.5076C78.4044 35.5076 77.8844 35.6116 77.4337 35.8196C76.9831 36.0276 76.5931 36.3222 76.2637 36.7036C75.9517 37.0849 75.7177 37.5442 75.5617 38.0816C75.4057 38.6189 75.3277 39.2342 75.3277 39.9276C75.3277 40.6036 75.4057 41.2189 75.5617 41.7736C75.7177 42.3109 75.9517 42.7702 76.2637 43.1516C76.5931 43.5329 76.9831 43.8276 77.4337 44.0356C77.9017 44.2436 78.4217 44.3476 78.9937 44.3476C79.4444 44.3476 79.8604 44.2869 80.2417 44.1656C80.6231 44.0269 80.9524 43.8362 81.2297 43.5936C81.5244 43.3336 81.7671 43.0302 81.9577 42.6836C82.1657 42.3369 82.3131 41.9382 82.3997 41.4876H86.1177C85.9964 42.3716 85.7364 43.1776 85.3377 43.9056C84.9391 44.6162 84.4277 45.2316 83.8037 45.7516C83.1797 46.2542 82.4604 46.6442 81.6457 46.9216C80.8311 47.1989 79.9384 47.3376 78.9677 47.3376C77.8584 47.3376 76.8531 47.1642 75.9517 46.8176C75.0504 46.4536 74.2791 45.9422 73.6377 45.2836C72.9964 44.6249 72.5024 43.8449 72.1557 42.9436C71.8091 42.0422 71.6357 41.0369 71.6357 39.9276Z" fill="white"/>
<path d="M53.7139 47.0002L60.4479 28.4102H65.4139L72.1219 47.0002H68.1439L66.6359 42.7102H59.1999L57.6919 47.0002H53.7139ZM60.1879 39.6682H65.6479L62.9179 31.8162L60.1879 39.6682Z" fill="white"/>
<path d="M143.143 19V15.334H146.887V19H143.143Z" fill="white"/>
<path d="M134.299 19.0004L129.125 4.85645H132.921L136.587 15.7504L140.279 4.85645H144.101L138.901 19.0004H134.299Z" fill="white"/>
<path d="M115.737 15.3856C115.737 14.2069 116.145 13.2796 116.959 12.6036C117.774 11.9276 118.996 11.4422 120.625 11.1476L125.617 10.2376V10.1336C125.617 9.18025 125.357 8.46958 124.837 8.00158C124.317 7.53358 123.589 7.29958 122.653 7.29958C121.7 7.29958 120.972 7.53358 120.469 8.00158C119.984 8.46958 119.689 9.12825 119.585 9.97758H115.919C116.006 9.09358 116.223 8.31358 116.569 7.63758C116.933 6.94425 117.401 6.37224 117.973 5.92158C118.563 5.45358 119.256 5.10691 120.053 4.88158C120.851 4.63891 121.726 4.51758 122.679 4.51758C124.759 4.51758 126.363 5.02891 127.489 6.05158C128.616 7.05691 129.179 8.51291 129.179 10.4196V18.9996H125.825L125.747 16.9196C125.539 17.2662 125.262 17.5869 124.915 17.8816C124.569 18.1762 124.17 18.4362 123.719 18.6616C123.269 18.8696 122.766 19.0342 122.211 19.1556C121.674 19.2769 121.102 19.3376 120.495 19.3376C119.854 19.3376 119.239 19.2596 118.649 19.1036C118.077 18.9476 117.575 18.7136 117.141 18.4016C116.708 18.0722 116.361 17.6562 116.101 17.1536C115.859 16.6509 115.737 16.0616 115.737 15.3856ZM119.455 14.8916C119.455 15.4636 119.663 15.8969 120.079 16.1916C120.495 16.4689 121.059 16.6076 121.769 16.6076C122.359 16.6076 122.887 16.5209 123.355 16.3476C123.841 16.1742 124.248 15.9316 124.577 15.6196C124.907 15.3076 125.158 14.9262 125.331 14.4756C125.522 14.0249 125.617 13.5309 125.617 12.9936V12.3176L121.639 13.0716C120.842 13.2276 120.279 13.4529 119.949 13.7476C119.62 14.0249 119.455 14.4062 119.455 14.8916Z" fill="white"/>
<path d="M99.7559 19.0002V0.410156H103.474V8.34016L110.702 0.410156H115.2L108.05 8.31416L115.668 19.0002H111.274L105.554 10.9142L103.474 13.1502V19.0002H99.7559Z" fill="white"/>
<path d="M84.9532 23.8624V20.8464C85.2652 20.8811 85.5599 20.9158 85.8372 20.9504C86.1146 20.9851 86.3919 21.0024 86.6692 21.0024C86.9812 21.0024 87.2846 20.9764 87.5792 20.9244C87.8912 20.8898 88.1859 20.8031 88.4632 20.6644C88.7406 20.5258 88.9919 20.3351 89.2172 20.0924C89.4426 19.8671 89.6332 19.5724 89.7892 19.2084L90.3092 18.0124L89.8932 20.1444L84.6152 4.85645H88.4372L91.7392 15.5944L95.0152 4.85645H98.8372L93.8972 19.2864C93.6026 20.1878 93.2299 20.9418 92.7792 21.5484C92.3459 22.1551 91.8432 22.6404 91.2712 23.0044C90.6992 23.3684 90.0666 23.6284 89.3732 23.7844C88.6972 23.9404 87.9692 24.0184 87.1892 24.0184C86.8946 24.0184 86.5392 24.0011 86.1232 23.9664C85.7072 23.9491 85.3172 23.9144 84.9532 23.8624Z" fill="white"/>
<path d="M71.1514 15.3856C71.1514 14.2069 71.5587 13.2796 72.3734 12.6036C73.188 11.9276 74.41 11.4422 76.0394 11.1476L81.0314 10.2376V10.1336C81.0314 9.18025 80.7714 8.46958 80.2514 8.00158C79.7314 7.53358 79.0034 7.29958 78.0674 7.29958C77.114 7.29958 76.386 7.53358 75.8834 8.00158C75.398 8.46958 75.1034 9.12825 74.9994 9.97758H71.3334C71.42 9.09358 71.6367 8.31358 71.9834 7.63758C72.3474 6.94425 72.8154 6.37224 73.3874 5.92158C73.9767 5.45358 74.67 5.10691 75.4674 4.88158C76.2647 4.63891 77.14 4.51758 78.0934 4.51758C80.1734 4.51758 81.7767 5.02891 82.9034 6.05158C84.03 7.05691 84.5934 8.51291 84.5934 10.4196V18.9996H81.2394L81.1614 16.9196C80.9534 17.2662 80.676 17.5869 80.3294 17.8816C79.9827 18.1762 79.584 18.4362 79.1334 18.6616C78.6827 18.8696 78.18 19.0342 77.6254 19.1556C77.088 19.2769 76.516 19.3376 75.9094 19.3376C75.268 19.3376 74.6527 19.2596 74.0634 19.1036C73.4914 18.9476 72.9887 18.7136 72.5554 18.4016C72.122 18.0722 71.7754 17.6562 71.5154 17.1536C71.2727 16.6509 71.1514 16.0616 71.1514 15.3856ZM74.8694 14.8916C74.8694 15.4636 75.0774 15.8969 75.4934 16.1916C75.9094 16.4689 76.4727 16.6076 77.1834 16.6076C77.7727 16.6076 78.3014 16.5209 78.7694 16.3476C79.2547 16.1742 79.662 15.9316 79.9914 15.6196C80.3207 15.3076 80.572 14.9262 80.7454 14.4756C80.936 14.0249 81.0314 13.5309 81.0314 12.9936V12.3176L77.0534 13.0716C76.256 13.2276 75.6927 13.4529 75.3634 13.7476C75.034 14.0249 74.8694 14.4062 74.8694 14.8916Z" fill="white"/>
<path d="M55.1699 19.0002V0.410156H58.8879V8.34016L66.1159 0.410156H70.6139L63.4639 8.31416L71.0819 19.0002H66.6879L60.9679 10.9142L58.8879 13.1502V19.0002H55.1699Z" fill="white"/>
</svg>
